IKResults
version=1
nRows=24
nColumns=29
inDegrees=yes

Units are S.I. units (second, meters, Newtons, ...)
If the header above contains a line with 'inDegrees', this indicates whether rotational values are in degrees (yes) or radians (no).

endheader
time	sternoclavicular_r2	sternoclavicular_r3	unrotscap_r3	unrotscap_r2	acromioclavicular_r2	acromioclavicular_r3	acromioclavicular_r1	unrothum_r1	unrothum_r3	unrothum_r2	elv_angle	shoulder_elv	shoulder1_r2	shoulder_rot	elbow_flexion	pro_sup	deviation	flexion	proximal_distal_r1	proximal_distal_r3	cmc_flexion	cmc_abduction	mp_flexion	ip_flexion	2mcp_flexion	2mcp_abduction	2pm_flexion	2md_flexion
      2.79000000	     -6.67847981	      2.82868884	     -2.82868884	      6.67847981	     -1.35225631	     10.92845984	      4.91226749	     -4.91226749	    -10.92845984	      1.35225631	     16.05653859	     27.59696216	    -16.05653859	      7.50261914	     78.57058428	     41.45259146	      0.20828173	      0.02527509	     14.16121516	      0.72407801	      3.36700001	     10.92352988	    -27.65299999	    -34.18399999	      0.97276624	      7.65299997	     26.93900001	     34.89800000
      2.80000000	     -6.68362326	      2.83086736	     -2.83086736	      6.68362326	     -1.35329775	     10.93687642	      4.91605068	     -4.91605068	    -10.93687642	      1.35329775	     16.05383521	     27.61821603	    -16.05383521	      7.49949920	     78.52354485	     41.62847875	      0.19846811	      0.02034883	     13.58532235	      0.58295108	      3.36700001	     10.29536266	    -27.65299999	    -34.18399999	      1.52244234	      7.65299997	     26.93900001	     34.89800000
      2.81000000	     -6.68544978	      2.83164099	     -2.83164099	      6.68544978	     -1.35366759	     10.93986528	      4.91739415	     -4.91739415	    -10.93986528	      1.35366759	     16.02722774	     27.62576362	    -16.02722774	      7.53338091	     78.53913934	     41.41201638	      0.20205198	      0.02007708	     13.79668078	      0.57516600	      3.36700001	     10.52328863	    -27.65299999	    -34.18399999	      1.86093050	      7.65299997	     26.93900001	     34.89800000
      2.82000000	     -6.68136061	      2.82990901	     -2.82990901	      6.68136061	     -1.35283961	     10.93317388	      4.91438642	     -4.91438642	    -10.93317388	      1.35283961	     16.02159933	     27.60886624	    -16.02159933	      7.51641686	     78.60154238	     41.49906945	      0.22207565	      0.02845764	     14.95542575	      0.81525130	      3.36700001	     11.51216028	    -27.65299999	    -34.18399999	     -0.27872234	      7.65299997	     26.93900001	     34.89800000
      2.83000000	     -6.68150455	      2.82996998	     -2.82996998	      6.68150455	     -1.35286876	     10.93340943	      4.91449229	     -4.91449229	    -10.93340943	      1.35286876	     16.00955985	     27.60946106	    -16.00955985	      7.50538860	     78.58793452	     41.50016029	      0.22211394	      0.02843865	     14.95758822	      0.81470742	      3.36700001	     11.51163974	    -27.65299999	    -34.18399999	     -0.28277739	      7.65299997	     26.93900001	     34.89800000
      2.84000000	     -6.68796720	      2.83270725	     -2.83270725	      6.68796720	     -1.35417731	     10.94398471	      4.91924581	     -4.91924581	    -10.94398471	      1.35417731	     16.09089856	     27.63616615	    -16.09089856	      7.54436032	     78.52865496	     41.26055697	      0.21578431	      0.02315022	     14.59539227	      0.66320508	      3.36700001	     11.76417242	    -27.65299999	    -34.18399999	     -0.84849686	      7.65299997	     26.93900001	     34.89800000
      2.85000000	     -6.69209580	      2.83445593	     -2.83445593	      6.69209580	     -1.35501327	     10.95074062	      4.92228254	     -4.92228254	    -10.95074062	      1.35501327	     16.01182447	     27.65322644	    -16.01182447	      7.57707453	     78.56151716	     41.34336288	      0.21553794	      0.02603070	     14.58123032	      0.74572466	      3.36700001	     11.35946533	    -27.65299999	    -34.18399999	     -0.47396223	      7.65299997	     26.93900001	     34.89800000
      2.86000000	     -6.68870211	      2.83301852	     -2.83301852	      6.68870211	     -1.35432612	     10.94518729	      4.91978636	     -4.91978636	    -10.94518729	      1.35432612	     16.08031946	     27.63920296	    -16.08031946	      7.53192059	     78.54421502	     41.54776156	      0.21184947	      0.03039523	     14.36833742	      0.87075927	      3.36700001	     10.74930165	    -27.65299999	    -34.18399999	      0.11640155	      7.65299997	     26.93900001	     34.89800000
      2.87000000	     -6.68815162	      2.83278536	     -2.83278536	      6.68815162	     -1.35421465	     10.94428648	      4.91938145	     -4.91938145	    -10.94428648	      1.35421465	     16.11370562	     27.63692820	    -16.11370562	      7.52069108	     78.53721443	     41.54278398	      0.21101899	      0.03115703	     14.32026336	      0.89258310	      3.36700001	     10.82513467	    -27.65299999	    -34.18399999	      0.34575937	      7.65299997	     26.93900001	     34.89800000
      2.88000000	     -6.68893307	      2.83311635	     -2.83311635	      6.68893307	     -1.35437288	     10.94556524	      4.91995624	     -4.91995624	    -10.94556524	      1.35437288	     16.10430432	     27.64015735	    -16.10430432	      7.48610455	     78.51576393	     41.55008514	      0.21111314	      0.03093243	     14.32568677	      0.88614873	      3.36700001	     10.82584416	    -27.65299999	    -34.18399999	      0.33655217	      7.65299997	     26.93900001	     34.89800000
      2.89000000	     -6.68487522	      2.83139763	     -2.83139763	      6.68487522	     -1.35355125	     10.93892509	      4.91697155	     -4.91697155	    -10.93892509	      1.35355125	     16.06960323	     27.62338941	    -16.06960323	      7.52167351	     78.56258753	     41.66447274	      0.21903378	      0.02944903	     14.78180359	      0.84365248	      3.36700001	     11.20059284	    -27.65299999	    -34.18399999	     -0.06997665	      7.65299997	     26.93900001	     34.89800000
      2.90000000	     -6.68933155	      2.83328513	     -2.83328513	      6.68933155	     -1.35445357	     10.94621730	      4.92024934	     -4.92024934	    -10.94621730	      1.35445357	     16.10675676	     27.64180396	    -16.10675676	      7.50458355	     78.50477214	     41.71503689	      0.20539964	      0.02698859	     13.99301782	      0.77316620	      3.36700001	     10.57785532	    -27.65299999	    -34.18399999	      0.19623584	      7.65299997	     26.93900001	     34.89800000
      2.91000000	     -6.69419901	      2.83534675	     -2.83534675	      6.69419901	     -1.35543913	     10.95418226	      4.92382954	     -4.92382954	    -10.95418226	      1.35543913	     16.10587830	     27.66191739	    -16.10587830	      7.58726495	     78.50954395	     41.36345859	      0.21397962	      0.02858237	     14.49144935	      0.81882467	      3.36700001	     11.14140557	    -27.65299999	    -34.18399999	     -0.09862942	      7.65299997	     26.93900001	     34.89800000
      2.92000000	     -6.68072831	      2.82964120	     -2.82964120	      6.68072831	     -1.35271159	     10.93213921	      4.91392134	     -4.91392134	    -10.93213921	      1.35271159	     16.12831592	     27.60625344	    -16.12831592	      7.52683010	     78.57123910	     41.48949298	      0.22512947	      0.03281849	     15.12885142	      0.94018059	      3.36700001	     11.39135775	    -27.65299999	    -34.18399999	     -0.36095186	      7.65299997	     26.93900001	     34.89800000
      2.93000000	     -6.67957264	      2.82915171	     -2.82915171	      6.67957264	     -1.35247759	     10.93024812	      4.91307131	     -4.91307131	    -10.93024812	      1.35247759	     16.13742574	     27.60147799	    -16.13742574	      7.57117526	     78.59228109	     41.48945041	      0.22497499	      0.03294382	     15.12007096	      0.94377087	      3.36700001	     11.39091423	    -27.65299999	    -34.18399999	     -0.35567494	      7.65299997	     26.93900001	     34.89800000
      2.94000000	     -6.68725039	      2.83240364	     -2.83240364	      6.68725039	     -1.35403217	     10.94281175	      4.91871857	     -4.91871857	    -10.94281175	      1.35403217	     16.05143512	     27.63320414	    -16.05143512	      7.54962493	     78.55692020	     41.29400267	      0.21802554	      0.02801473	     14.72408281	      0.80256285	      3.36700001	     11.40743122	    -27.65299999	    -34.18399999	     -0.46442065	      7.65299997	     26.93900001	     34.89800000
      2.95000000	     -6.69197713	      2.83440567	     -2.83440567	      6.69197713	     -1.35498924	     10.95054643	      4.92219526	     -4.92219526	    -10.95054643	      1.35498924	     16.09847133	     27.65273606	    -16.09847133	      7.49183920	     78.44507372	     41.62834340	      0.19809556	      0.02689304	     13.56329659	      0.77042873	      3.36700001	     10.33955733	    -27.65299999	    -34.18399999	      0.22398835	      7.65299997	     26.93900001	     34.89800000
      2.96000000	     -6.68597441	      2.83186320	     -2.83186320	      6.68597441	     -1.35377382	     10.94072378	      4.91778004	     -4.91778004	    -10.94072378	      1.35377382	     15.99330682	     27.62793153	    -15.99330682	      7.65628060	     78.55321543	     40.79582343	      0.21893197	      0.01954040	     14.77598249	      0.55979109	      3.36700001	     10.42758662	    -27.65299999	    -34.18399999	     -0.23649779	      7.65299997	     26.93900001	     34.89800000
      2.97000000	     -6.68086212	      2.82969787	     -2.82969787	      6.68086212	     -1.35273868	     10.93235818	      4.91401976	     -4.91401976	    -10.93235818	      1.35273868	     16.01786153	     27.60680639	    -16.01786153	      7.65049246	     78.55129147	     41.21466351	      0.22157279	      0.01755891	     14.92676930	      0.50302568	      3.36700001	     11.78661910	    -27.65299999	    -34.18399999	     -0.57421732	      7.65299997	     26.93900001	     34.89800000
      2.98000000	     -6.69266252	      2.83469597	     -2.83469597	      6.69266252	     -1.35512802	     10.95166799	      4.92269939	     -4.92269939	    -10.95166799	      1.35512802	     15.97866400	     27.65556826	    -15.97866400	      7.71502320	     78.58939694	     41.04588404	      0.22006144	      0.02703610	     14.84055473	      0.77452715	      3.36700001	     11.69618543	    -27.65299999	    -34.18399999	     -1.43638896	      7.65299997	     26.93900001	     34.89800000
      2.99000000	     -6.68065885	      2.82961178	     -2.82961178	      6.68065885	     -1.35269752	     10.93202556	      4.91387025	     -4.91387025	    -10.93202556	      1.35269752	     16.02532130	     27.60596644	    -16.02532130	      7.53883002	     78.57019690	     41.65367249	      0.20913461	      0.02725800	     14.21086520	      0.78088404	      3.36700001	     10.97737092	    -27.65299999	    -34.18399999	     -1.19611066	      7.65299997	     26.93900001	     34.89800000
      3.00000000	     -6.68363768	      2.83087347	     -2.83087347	      6.68363768	     -1.35330067	     10.93690001	      4.91606129	     -4.91606129	    -10.93690001	      1.35330067	     16.02297358	     27.61827560	    -16.02297358	      7.50151915	     78.52767168	     41.65193285	      0.20929853	      0.02720579	     14.22036283	      0.77938837	      3.36700001	     10.97463985	    -27.65299999	    -34.18399999	     -1.19567230	      7.65299997	     26.93900001	     34.89800000
      3.01000000	     -6.68462548	      2.83129186	     -2.83129186	      6.68462548	     -1.35350068	     10.93851643	      4.91678785	     -4.91678785	    -10.93851643	      1.35350068	     16.03389177	     27.62235744	    -16.03389177	      7.60033517	     78.56849465	     41.46346315	      0.22017174	      0.02385709	     14.84688976	      0.68345537	      3.36700001	     11.34776376	    -27.65299999	    -34.18399999	     -0.66567749	      7.65299997	     26.93900001	     34.89800000
      3.02000000	     -6.68636856	      2.83203014	     -2.83203014	      6.68636856	     -1.35385362	     10.94136874	      4.91806995	     -4.91806995	    -10.94136874	      1.35385362	     16.01977454	     27.62956021	    -16.01977454	      7.61780059	     78.55878936	     41.39721161	      0.21920171	      0.02352829	     14.79141257	      0.67403595	      3.36700001	     11.26911164	    -27.65299999	    -34.18399999	     -0.62470506	      7.65299997	     26.93900001	     34.89800000
